<mxfile host="app.diagrams.net" modified="2023-07-15T21:46:39.263Z" agent="Mozilla/5.0 (Windows NT 10.0; Win64; x64) AppleWebKit/537.36 (KHTML, like Gecko) Chrome/114.0.0.0 Safari/537.36" version="21.6.2" etag="C6Up9gB-VqDM5cnp2QYF" type="github">
  <diagram name="Sayfa -1" id="JxsRG24YF4hutcoa3uCN">
    <mxGraphModel>
      <root>
        <mxCell id="0" />
        <mxCell id="1" parent="0" />
      </root>
    </mxGraphModel>
  </diagram>
</mxfile>
